# xmcd
#
# Track frame offsets:
# 150
# 7790
# 29919
# 54200
# 75945
# 114112
# 140162
# 161835
# 183784
# 207350
# 233952
# 270752
# 285577
# 304017
# 333447
#
# Disc length: 4733 seconds
#
# Revision: 0
# Processed by: cddbd v1.4PL0 Copyright (c) Steve Scherf et al.
# Submitted via: Audion 3.0.2 (http://www.panic.com/audion/)
#
DISCID=bd127b0f
DTITLE=Billy Joel - 2000 years
DYEAR=1900
DGENRE=
TTITLE0=beethoven's 9th symphony
TTITLE1=big shot
TTITLE2=movin' out
TTITLE3=don't ask me why
TTITLE4=ny state of mind
TTITLE5=my life
TTITLE6=allentown
TTITLE7=i go to extremes
TTITLE8=we didn't start the fire
TTITLE9=river of dreams
TTITLE10=scenes from an italian restaurant
TTITLE11=honky tonk women
TTITLE12=it's still rock and roll to me
TTITLE13=this is the time
TTITLE14=just the way you are
EXTD=
EXTT0=
EXTT1=
EXTT2=
EXTT3=
EXTT4=
EXTT5=
EXTT6=
EXTT7=
EXTT8=
EXTT9=
EXTT10=
EXTT11=
EXTT12=
EXTT13=
EXTT14=
PLAYORDER=
